<?xml version="1.0" encoding="utf-8"?><svg version="1.1" id="svg3013" inkscape:version="0.48.3.1 r9886" sodipodi:docname="bullhorn_font_awesome.svg" xmlns:inkscape="http://www.inkscape.org/namespaces/inkscape" xmlns:sodipodi="http://sodipodi.sourceforge.net/DTD/sodipodi-0.dtd" xmlns:svg="http://www.w3.org/2000/svg" xmlns:rdf="http://www.w3.org/1999/02/22-rdf-syntax-ns#" xmlns:dc="http://purl.org/dc/elements/1.1/" xmlns="http://www.w3.org/2000/svg" xmlns:xlink="http://www.w3.org/1999/xlink" x="0px" y="0px" viewBox="12.6 -115.2 592.8 508.5" style="enable-background:new 12.6 -115.2 592.8 508.5;" xml:space="preserve"><sodipodi:namedview  inkscape:window-height="480" inkscape:window-y="25" inkscape:window-x="0" inkscape:window-maximized="0" inkscape:pageopacity="0" inkscape:window-width="640" inkscape:current-layer="svg3013" inkscape:pageshadow="2" inkscape:cy="896" inkscape:zoom="0.13169643" showgrid="false" inkscape:cx="896" guidetolerance="10" gridtolerance="10" pagecolor="#ffffff" borderopacity="1" bordercolor="#666666" objecttolerance="10" id="namedview3019"></sodipodi:namedview><g id="g3015" transform="matrix(1,0,0,-1,37.966102,1305.4576)"><path id="path3017" inkscape:connector-curvature="0" d="M526.1,1251.3c11.7,0,21.7-4.1,29.9-12.4c8.3-8.3,12.4-18.2,12.4-29.9,s-4.1-21.7-12.4-29.9c-8.3-8.3-18.2-12.4-29.9-12.4v-127c0-11.5-4.2-21.4-12.6-29.8c-8.4-8.4-18.3-12.6-29.8-12.6,c-92,76.5-181.5,118.4-268.6,125.7c-12.8-4.2-22.8-11.5-30.1-21.8c-7.3-10.4-10.7-21.4-10.3-33.2s4.9-22,13.2-30.6,c-4.4-7.3-6.9-14.5-7.6-21.7c-0.7-7.2,0-13.6,2-19.2s5.7-11.7,11.1-18.2c5.4-6.5,10.7-12,15.9-16.5s12-10.1,20.3-16.7,c-6.4-12.8-18.7-21.9-36.9-27.5c-18.2-5.5-36.8-6.8-55.7-3.8s-33.5,9.1-43.7,18.4c-1.5,5.1-4.8,14.7-9.8,28.9,c-5,14.2-8.5,24.6-10.6,31.3s-4.6,16.4-7.6,29.4c-3,13-4.6,24.1-5,33.4s0.1,20.1,1.2,32.6c1.1,12.5,3.5,24.6,7.3,36.6H28.5,c-14.6,0-27,5.2-37.4,15.5c-10.4,10.4-15.5,22.8-15.5,37.4v63.5c0,14.6,5.2,27,15.5,37.4c10.4,10.4,22.8,15.5,37.4,15.5h158.8,c95.9,0,194.7,42.3,296.4,127c11.5,0,21.4-4.2,29.8-12.6c8.4-8.4,12.6-18.3,12.6-29.8V1251.3z M483.7,1051.5v315.6,c-86.9-66.6-171.6-104.4-254.1-113.5v-89.3C312.8,1155.1,397.5,1117.4,483.7,1051.5z"/></g></svg>
