<?xml version="1.0" encoding="utf-8"?><svg version="1.1" id="Layer_1" xmlns="http://www.w3.org/2000/svg" xmlns:xlink="http://www.w3.org/1999/xlink" x="0px" y="0px" viewBox="0 0 341 55.7" style="enable-background:new 0 0 341 55.7;" xml:space="preserve"><style type="text/css">.st0{clip-path:url(#SVGID_2_);fill:#57DD84;}.st1{clip-path:url(#SVGID_2_);fill:#1B1D1C;}</style><g><defs><rect id="SVGID_1_" y="0" width="341" height="55.7"/></defs><clipPath id="SVGID_2_"><use xlink:href="#SVGID_1_"  style="overflow:visible;"/></clipPath><path class="st0" d="M22.4,5.8c9.1,0,16.5,7.4,16.5,16.5c0,9.1-7.4,16.5-16.5,16.5c-2.3,0-4.6-0.5-6.8-1.5L14,36.8L12.3,37L7,37.8,l0.8-5.3L8,30.8l-0.7-1.6c-1-2.2-1.5-4.5-1.5-6.8C5.8,13.3,13.3,5.8,22.4,5.8 M22.4,0C10,0,0,10,0,22.4c0,3.3,0.7,6.4,2,9.2L0,44.8,l13.2-2c2.8,1.3,5.9,2,9.2,2c12.4,0,22.4-10,22.4-22.4C44.8,10,34.8,0,22.4,0"/><path class="st0" d="M22.4,29.5c-3.4,0-6.6-1-9.5-2.9c-1-0.7-1.2-2-0.6-2.9c0.7-1,2-1.2,2.9-0.6c4.2,2.9,10,2.9,14.2,0,c1-0.7,2.3-0.4,2.9,0.6c0.7,1,0.4,2.3-0.6,2.9C29.1,28.5,25.8,29.5,22.4,29.5"/><path class="st1" d="M152.6,44.8V22.9c0-3.9-1.7-6.4-5.7-6.4c-3.2,0-6.6,2.2-8.2,4.8v23.6h-4.8V22.9c0-3.9-1.6-6.4-5.7-6.4,c-3.1,0-6.5,2.3-8.2,4.8v23.5h-5.5V12.1h5.5v5.3c1.3-2,5.5-5.3,10.1-5.3c4.7,0,7.4,2.6,8.3,5.8c1.7-2.8,5.9-5.8,10.4-5.8,c5.7,0,8.7,3.1,8.7,9.4v23.3H152.6z"/><path class="st1" d="M67.5,12c0-4,3.7-6.8,8.8-6.8c4.2,0,8.2,1.2,11.3,4.1L90.4,5c-3.4-2.9-8-4.6-13.6-4.6C68.3,0.4,62,5.3,62,12.3,c0,15.3,25.4,9.1,25.4,20.2c0,3.3-2.4,7.5-10.1,7.5c-6,0-11-3.4-13.8-6.6l-2.8,4.5c3.5,4,9.1,6.8,16.4,6.8,c11.6,0,15.8-6.4,15.8-12.6C92.9,16.1,67.5,21.6,67.5,12"/><rect x="100.4" y="12.1" class="st1" width="5.4" height="32.6"/><path class="st1" d="M106.5,4.8c0-1.9-1.5-3.4-3.4-3.4S99.7,3,99.7,4.8c0,1.9,1.5,3.4,3.4,3.4S106.5,6.7,106.5,4.8"/><path class="st1" d="M171.8,39.2v16.5h-5.5V12.1h5.5v5.4c2.2-3.1,6.1-5.4,10.5-5.4c8.2,0,13.8,6.2,13.8,16.2,c0,10-5.7,16.3-13.8,16.3C178.1,44.7,174.4,42.6,171.8,39.2 M191,28.4c0-6.9-3.7-11.9-10-11.9c-3.8,0-7.6,2.2-9.2,4.9v14,c1.7,2.7,5.5,5,9.2,5C187.3,40.4,191,35.3,191,28.4"/><rect x="203.3" y="0.2" class="st1" width="5.3" height="44.6"/><path class="st1" d="M241.9,37.1c-2.5,2.3-5.8,3.6-9.2,3.6c-6.7,0-10.7-4.9-11.1-10.7h25v-1.2c0-9.3-5.5-16.6-14.9-16.6,c-8.9,0-15.3,7.3-15.3,16.2c0,9.7,6.6,16.3,15.9,16.3c4.7,0,8.6-1.5,11.7-4.2L241.9,37.1z M231.6,16.1c7.1,0,10.1,5.7,10.2,10.3,h-20.4C221.7,21.7,225,16.1,231.6,16.1"/><path class="st1" d="M260.5,12.4c0-3.1,2.8-5.3,7.2-5.3c4.5,0,9.1,1.5,12.5,4.9l0.7-1l3.1-5c-3.9-3.6-9.2-5.7-15.6-5.7,c-9.4,0-15.6,5.5-15.6,12.6c0,15.7,24.9,10.1,24.9,19.1c0,2.9-2.4,5.9-8.5,5.9c-5.6,0-10-2.5-12.9-5.3l-3.8,6.2,c3.8,3.4,9.2,5.8,16.4,5.8c11.5,0,16.6-6.2,16.6-13.3C285.4,15.5,260.5,20.4,260.5,12.4"/><path class="st1" d="M304.8,12.1c-4.8,0-9.2,1.5-12.8,4.8l2.9,4.6c2.6-2.5,5.5-3.7,8.9-3.7c4.2,0,7.3,2.2,7.3,5.8v4.6,c-2.3-2.6-5.8-4-10.1-4c-5.1,0-10.7,3-10.7,10.1c0,6.8,5.7,10.3,10.7,10.3c4.1,0,7.8-1.5,10.1-4.2v4.3h6.7V23.3,C317.8,15,311.8,12.1,304.8,12.1 M311.1,36.9c-1.6,2.1-4.5,3.2-7.4,3.2c-3.8,0-6.7-2.2-6.7-5.6c0-3.3,2.9-5.6,6.7-5.6,c2.9,0,5.8,1.1,7.4,3.2V36.9z"/><path class="st1" d="M337.9,38.7c-0.1,0-0.2,0-0.3,0c-1.9,0-3-1.6-3-3.7V18h6.3v-5.8h-6.3V4.9H328v7.2h-5.1V18h5.1v18.7,c0,5.2,2.7,8,8,8c2.2,0,3.8-0.5,5-1.1L337.9,38.7z"/></g></svg>
